# xmcd
#
# Track frame offsets: 
#        150
#        14616
#        29653
#        42043
#        57913
#        72990
#        87770
#        101393
#        114014
#        126713
#        139377
#        153895
#        168600
#        182739
#        196614
#        210659
#        224695
#        238780
#        253026
#        266498
#        280635
#        294151
#        307514
#
# Disc length: 4268 seconds
#
# Revision: 0
# Processed by: cddbd v1.5.2PL0 Copyright (c) Steve Scherf et al.
# Submitted via: ExactAudioCopy v0.95b3
#
DISCID=4910aa17
DTITLE=Benny Carter  - Volume 5 1936 Complete Edition
DYEAR=1900
DGENRE=
TTITLE0=I've Got A Feelin' You're Foolin'
TTITLE1=Stay Out Of Love
TTITLE2=Rhythm Is Our Business
TTITLE3=Just A Mood
TTITLE4=All Of Me
TTITLE5=Stardust
TTITLE6=I'm Putting All My Eggs In One Basket
TTITLE7=Swingin' At Maida Vale
TTITLE8=Swingin' At Maida Vale
TTITLE9=Swingin' At Maida Vale
TTITLE10=Nightfall
TTITLE11=Nightfall
TTITLE12=Big Ben Blues
TTITLE13=Big Ben Blues
TTITLE14=This Foolish Things
TTITLE15=This Foolish Things
TTITLE16=This Foolish Things
TTITLE17=When Day Is Done
TTITLE18=When Day Is Done
TTITLE19=When Day Is Done
TTITLE20=I've Got Two Lips
TTITLE21=I've Got Two Lips
TTITLE22=I've Got Two Lips
EXTD=
EXTT0=
EXTT1=
EXTT2=
EXTT3=
EXTT4=
EXTT5=
EXTT6=
EXTT7=
EXTT8=
EXTT9=
EXTT10=
EXTT11=
EXTT12=
EXTT13=
EXTT14=
EXTT15=
EXTT16=
EXTT17=
EXTT18=
EXTT19=
EXTT20=
EXTT21=
EXTT22=
PLAYORDER=
